<svg width="360" height="120" viewBox="0 0 360 120" fill="none" xmlns="http://www.w3.org/2000/svg">
    <title>Crafted by Human</title>
    <desc>A badge for projects created entirely by human hands</desc>
    <path d="M32 2H358V118H2V32C2 15.4315 15.4315 2 32 2Z" fill="white"/>
    <path d="M32 2H358V118H2V32C2 15.4315 15.4315 2 32 2Z" stroke="black" stroke-width="4"/>
    <path d="M148.196 32.0938H141.974C141.861 31.2888 141.629 30.5739 141.278 29.9489C140.928 29.3144 140.478 28.7746 139.929 28.3295C139.38 27.8845 138.745 27.5436 138.026 27.3068C137.315 27.0701 136.544 26.9517 135.71 26.9517C134.205 26.9517 132.893 27.3258 131.776 28.0739C130.658 28.8125 129.792 29.892 129.176 31.3125C128.561 32.7235 128.253 34.4375 128.253 36.4545C128.253 38.5284 128.561 40.2708 129.176 41.6818C129.801 43.0928 130.672 44.1581 131.79 44.8778C132.907 45.5975 134.2 45.9574 135.668 45.9574C136.491 45.9574 137.254 45.8485 137.955 45.6307C138.665 45.4129 139.295 45.0956 139.844 44.679C140.393 44.2528 140.848 43.7367 141.207 43.1307C141.577 42.5246 141.832 41.8333 141.974 41.0568L148.196 41.0852C148.035 42.4205 147.633 43.7083 146.989 44.9489C146.354 46.1799 145.497 47.2831 144.418 48.2585C143.348 49.2244 142.069 49.9915 140.582 50.5597C139.105 51.1184 137.434 51.3977 135.568 51.3977C132.973 51.3977 130.653 50.8106 128.608 49.6364C126.572 48.4621 124.962 46.7623 123.778 44.5369C122.604 42.3116 122.017 39.6174 122.017 36.4545C122.017 33.2822 122.614 30.5833 123.807 28.358C125 26.1326 126.619 24.4375 128.665 23.2727C130.71 22.0985 133.011 21.5114 135.568 21.5114C137.254 21.5114 138.816 21.7481 140.256 22.2216C141.705 22.6951 142.988 23.3864 144.105 24.2955C145.223 25.1951 146.132 26.2983 146.832 27.6051C147.543 28.9119 147.997 30.4081 148.196 32.0938Z" fill="black"/>
    <path d="M152.493 51V29.1818H158.359V32.9886H158.587C158.984 31.6345 159.652 30.6117 160.589 29.9205C161.527 29.2197 162.607 28.8693 163.828 28.8693C164.131 28.8693 164.458 28.8883 164.808 28.9261C165.159 28.964 165.466 29.0161 165.732 29.0824V34.4517C165.447 34.3665 165.054 34.2907 164.553 34.2244C164.051 34.1581 163.591 34.125 163.175 34.125C162.285 34.125 161.489 34.3191 160.788 34.7074C160.097 35.0862 159.548 35.6165 159.141 36.2983C158.743 36.9801 158.544 37.7661 158.544 38.6562V51H152.493Z" fill="black"/>
    <path d="M174.457 51.4119C173.065 51.4119 171.824 51.1705 170.735 50.6875C169.646 50.1951 168.784 49.4706 168.15 48.5142C167.525 47.5483 167.212 46.3456 167.212 44.9062C167.212 43.6941 167.435 42.6761 167.88 41.8523C168.325 41.0284 168.931 40.3655 169.698 39.8636C170.465 39.3617 171.336 38.983 172.312 38.7273C173.297 38.4716 174.329 38.2917 175.408 38.1875C176.677 38.0549 177.7 37.9318 178.477 37.8182C179.253 37.6951 179.817 37.5152 180.167 37.2784C180.517 37.0417 180.692 36.6913 180.692 36.2273V36.142C180.692 35.2424 180.408 34.5464 179.84 34.054C179.281 33.5616 178.486 33.3153 177.454 33.3153C176.365 33.3153 175.498 33.5568 174.854 34.0398C174.21 34.5133 173.784 35.1098 173.576 35.8295L167.979 35.375C168.263 34.0492 168.822 32.9034 169.656 31.9375C170.489 30.9621 171.564 30.214 172.88 29.6932C174.206 29.1629 175.74 28.8977 177.482 28.8977C178.694 28.8977 179.854 29.0398 180.962 29.3239C182.08 29.608 183.069 30.0483 183.931 30.6449C184.802 31.2415 185.489 32.0085 185.991 32.946C186.493 33.8741 186.744 34.9867 186.744 36.2841V51H181.005V47.9744H180.835C180.484 48.6563 180.015 49.2576 179.428 49.7784C178.841 50.2898 178.136 50.6922 177.312 50.9858C176.488 51.2699 175.536 51.4119 174.457 51.4119ZM176.19 47.2358C177.08 47.2358 177.866 47.0606 178.548 46.7102C179.229 46.3504 179.764 45.8674 180.153 45.2614C180.541 44.6553 180.735 43.9687 180.735 43.2017V40.8864C180.546 41.0095 180.285 41.1231 179.954 41.2273C179.632 41.322 179.267 41.4119 178.86 41.4972C178.453 41.5729 178.046 41.6439 177.638 41.7102C177.231 41.767 176.862 41.8191 176.531 41.8665C175.82 41.9706 175.2 42.1364 174.67 42.3636C174.139 42.5909 173.728 42.8987 173.434 43.2869C173.14 43.6657 172.994 44.1392 172.994 44.7074C172.994 45.5312 173.292 46.161 173.888 46.5966C174.495 47.0227 175.262 47.2358 176.19 47.2358Z" fill="black"/>
    <path d="M203.171 29.1818V33.7273H189.705V29.1818H203.171ZM192.788 51V27.6051C192.788 26.0237 193.095 24.7121 193.711 23.6705C194.336 22.6288 195.188 21.8475 196.268 21.3267C197.347 20.8059 198.574 20.5455 199.947 20.5455C200.875 20.5455 201.722 20.6165 202.489 20.7585C203.266 20.9006 203.844 21.0284 204.222 21.142L203.143 25.6875C202.906 25.6117 202.612 25.5407 202.262 25.4744C201.921 25.4081 201.571 25.375 201.211 25.375C200.321 25.375 199.701 25.5833 199.35 26C199 26.4072 198.825 26.9801 198.825 27.7187V51H192.788Z" fill="black"/>
    <path d="M218.473 29.1818V33.7273H205.334V29.1818H218.473ZM208.317 23.9545H214.368V44.2955C214.368 44.8542 214.453 45.2898 214.624 45.6023C214.794 45.9053 215.031 46.1184 215.334 46.2415C215.646 46.3646 216.006 46.4261 216.413 46.4261C216.697 46.4261 216.982 46.4025 217.266 46.3551C217.55 46.2983 217.768 46.2557 217.919 46.2273L218.871 50.7301C218.568 50.8248 218.142 50.9337 217.592 51.0568C217.043 51.1894 216.375 51.2699 215.589 51.2983C214.131 51.3551 212.853 51.161 211.754 50.7159C210.665 50.2708 209.818 49.5795 209.212 48.642C208.606 47.7045 208.307 46.5208 208.317 45.0909V23.9545Z" fill="black"/>
    <path d="M232.124 51.4261C229.879 51.4261 227.947 50.9716 226.328 50.0625C224.718 49.1439 223.478 47.8466 222.607 46.1705C221.735 44.4848 221.3 42.4915 221.3 40.1903C221.3 37.946 221.735 35.9763 222.607 34.2812C223.478 32.5862 224.704 31.2652 226.286 30.3182C227.876 29.3712 229.742 28.8977 231.882 28.8977C233.321 28.8977 234.661 29.1297 235.902 29.5938C237.152 30.0483 238.241 30.7348 239.169 31.6534C240.107 32.572 240.836 33.7273 241.357 35.1193C241.877 36.5019 242.138 38.1212 242.138 39.9773V41.6392H223.714V37.8892H236.442C236.442 37.018 236.252 36.2462 235.874 35.5739C235.495 34.9015 234.969 34.3759 234.297 33.9972C233.634 33.6089 232.862 33.4148 231.982 33.4148C231.063 33.4148 230.249 33.6278 229.538 34.054C228.838 34.4706 228.288 35.0341 227.891 35.7443C227.493 36.4451 227.289 37.2263 227.28 38.0881V41.6534C227.28 42.733 227.479 43.6657 227.876 44.4517C228.284 45.2377 228.857 45.8437 229.595 46.2699C230.334 46.696 231.21 46.9091 232.223 46.9091C232.895 46.9091 233.511 46.8144 234.07 46.625C234.628 46.4356 235.107 46.1515 235.504 45.7727C235.902 45.3939 236.205 44.9299 236.413 44.3807L242.01 44.75C241.726 46.0947 241.143 47.2689 240.263 48.2727C239.392 49.267 238.265 50.0436 236.882 50.6023C235.509 51.1515 233.923 51.4261 232.124 51.4261Z" fill="black"/>
    <path d="M254.126 51.3551C252.469 51.3551 250.968 50.929 249.624 50.0767C248.288 49.215 247.228 47.9508 246.442 46.2841C245.665 44.608 245.277 42.553 245.277 40.1193C245.277 37.6193 245.679 35.5407 246.484 33.8835C247.289 32.2169 248.359 30.9716 249.695 30.1477C251.039 29.3144 252.512 28.8977 254.112 28.8977C255.334 28.8977 256.352 29.1061 257.166 29.5227C257.99 29.9299 258.653 30.4413 259.155 31.0568C259.666 31.6629 260.054 32.2595 260.32 32.8466H260.504V21.9091H266.541V51H260.575V47.5057H260.32C260.036 48.1117 259.633 48.7131 259.112 49.3097C258.601 49.8968 257.933 50.3845 257.109 50.7727C256.295 51.161 255.301 51.3551 254.126 51.3551ZM256.044 46.5398C257.019 46.5398 257.843 46.2746 258.516 45.7443C259.197 45.2045 259.718 44.4517 260.078 43.4858C260.447 42.5199 260.632 41.3883 260.632 40.0909C260.632 38.7936 260.452 37.6667 260.092 36.7102C259.732 35.7538 259.212 35.0152 258.53 34.4943C257.848 33.9735 257.019 33.7131 256.044 33.7131C255.05 33.7131 254.212 33.983 253.53 34.5227C252.848 35.0625 252.332 35.8106 251.982 36.767C251.631 37.7235 251.456 38.8314 251.456 40.0909C251.456 41.3598 251.631 42.482 251.982 43.4574C252.341 44.4233 252.857 45.1809 253.53 45.7301C254.212 46.2699 255.05 46.5398 256.044 46.5398Z" fill="black"/>
    <path d="M122.528 99V69.9091H128.58V80.8466H128.764C129.029 80.2595 129.413 79.6629 129.915 79.0568C130.426 78.4413 131.089 77.9299 131.903 77.5227C132.727 77.1061 133.75 76.8977 134.972 76.8977C136.562 76.8977 138.03 77.3144 139.375 78.1477C140.72 78.9716 141.795 80.2169 142.599 81.8835C143.404 83.5407 143.807 85.6193 143.807 88.1193C143.807 90.553 143.414 92.608 142.628 94.2841C141.851 95.9508 140.791 97.215 139.446 98.0767C138.111 98.929 136.615 99.3551 134.957 99.3551C133.783 99.3551 132.784 99.161 131.96 98.7727C131.146 98.3845 130.478 97.8968 129.957 97.3097C129.437 96.7131 129.039 96.1117 128.764 95.5057H128.494V99H122.528ZM128.452 88.0909C128.452 89.3883 128.632 90.5199 128.991 91.4858C129.351 92.4517 129.872 93.2045 130.554 93.7443C131.236 94.2746 132.064 94.5398 133.04 94.5398C134.025 94.5398 134.858 94.2699 135.54 93.7301C136.222 93.1809 136.738 92.4233 137.088 91.4574C137.448 90.482 137.628 89.3598 137.628 88.0909C137.628 86.8314 137.453 85.7235 137.102 84.767C136.752 83.8106 136.236 83.0625 135.554 82.5227C134.872 81.983 134.034 81.7131 133.04 81.7131C132.055 81.7131 131.222 81.9735 130.54 82.4943C129.867 83.0151 129.351 83.7538 128.991 84.7102C128.632 85.6667 128.452 86.7936 128.452 88.0909Z" fill="black"/>
    <path d="M150.877 107.182C150.11 107.182 149.39 107.12 148.718 106.997C148.055 106.884 147.506 106.737 147.07 106.557L148.434 102.04C149.144 102.258 149.783 102.376 150.352 102.395C150.929 102.414 151.426 102.281 151.843 101.997C152.269 101.713 152.615 101.23 152.88 100.548L153.235 99.625L145.408 77.1818H151.772L156.289 93.2045H156.516L161.076 77.1818H167.482L159.002 101.358C158.595 102.532 158.041 103.555 157.34 104.426C156.649 105.307 155.773 105.984 154.712 106.457C153.652 106.94 152.373 107.182 150.877 107.182Z" fill="black"/>
    <path d="M179.95 99V69.9091H186.101V81.9119H198.587V69.9091H204.723V99H198.587V86.983H186.101V99H179.95Z" fill="black"/>
    <path d="M223.672 89.7102V77.1818H229.723V99H223.913V95.0369H223.686C223.194 96.3153 222.375 97.3428 221.229 98.1193C220.092 98.8958 218.705 99.2841 217.067 99.2841C215.608 99.2841 214.325 98.9527 213.217 98.2898C212.109 97.6269 211.243 96.6847 210.618 95.4631C210.002 94.2415 209.69 92.7784 209.68 91.0739V77.1818H215.732V89.9943C215.741 91.2822 216.087 92.3002 216.768 93.0483C217.45 93.7964 218.364 94.1705 219.51 94.1705C220.239 94.1705 220.921 94.0047 221.555 93.6733C222.19 93.3324 222.701 92.8305 223.089 92.1676C223.487 91.5047 223.681 90.6856 223.672 89.7102Z" fill="black"/>
    <path d="M234.563 99V77.1818H240.33V81.0312H240.586C241.04 79.7528 241.798 78.7443 242.859 78.0057C243.919 77.267 245.188 76.8977 246.665 76.8977C248.162 76.8977 249.435 77.2718 250.487 78.0199C251.538 78.7585 252.238 79.7623 252.589 81.0312H252.816C253.261 79.7812 254.066 78.7822 255.231 78.0341C256.405 77.2765 257.792 76.8977 259.393 76.8977C261.429 76.8977 263.081 77.5464 264.35 78.8438C265.629 80.1316 266.268 81.9593 266.268 84.3267V99H260.231V85.5199C260.231 84.3078 259.909 83.3987 259.265 82.7926C258.621 82.1866 257.816 81.8835 256.85 81.8835C255.752 81.8835 254.895 82.2339 254.279 82.9347C253.664 83.6259 253.356 84.5398 253.356 85.6761V99H247.489V85.392C247.489 84.322 247.182 83.4697 246.566 82.8352C245.96 82.2008 245.16 81.8835 244.165 81.8835C243.493 81.8835 242.887 82.054 242.347 82.3949C241.817 82.7263 241.396 83.1951 241.083 83.8011C240.771 84.3977 240.614 85.0985 240.614 85.9034V99H234.563Z" fill="black"/>
    <path d="M277.269 99.4119C275.877 99.4119 274.637 99.1705 273.548 98.6875C272.459 98.1951 271.597 97.4706 270.962 96.5142C270.337 95.5483 270.025 94.3456 270.025 92.9062C270.025 91.6941 270.247 90.6761 270.692 89.8523C271.138 89.0284 271.744 88.3655 272.511 87.8636C273.278 87.3617 274.149 86.983 275.124 86.7273C276.109 86.4716 277.141 86.2917 278.221 86.1875C279.49 86.0549 280.513 85.9318 281.289 85.8182C282.066 85.6951 282.629 85.5152 282.979 85.2784C283.33 85.0417 283.505 84.6913 283.505 84.2273V84.142C283.505 83.2424 283.221 82.5464 282.653 82.054C282.094 81.5615 281.299 81.3153 280.266 81.3153C279.177 81.3153 278.311 81.5568 277.667 82.0398C277.023 82.5133 276.597 83.1098 276.388 83.8295L270.792 83.375C271.076 82.0492 271.635 80.9034 272.468 79.9375C273.301 78.9621 274.376 78.214 275.692 77.6932C277.018 77.1629 278.552 76.8977 280.295 76.8977C281.507 76.8977 282.667 77.0398 283.775 77.3239C284.892 77.608 285.882 78.0483 286.744 78.6449C287.615 79.2415 288.301 80.0085 288.803 80.946C289.305 81.8741 289.556 82.9867 289.556 84.2841V99H283.817V95.9744H283.647C283.297 96.6562 282.828 97.2576 282.241 97.7784C281.654 98.2898 280.948 98.6922 280.124 98.9858C279.3 99.2699 278.349 99.4119 277.269 99.4119ZM279.002 95.2358C279.892 95.2358 280.678 95.0606 281.36 94.7102C282.042 94.3504 282.577 93.8674 282.965 93.2614C283.353 92.6553 283.548 91.9687 283.548 91.2017V88.8864C283.358 89.0095 283.098 89.1231 282.766 89.2273C282.444 89.322 282.08 89.4119 281.673 89.4972C281.265 89.5729 280.858 89.6439 280.451 89.7102C280.044 89.767 279.674 89.8191 279.343 89.8665C278.633 89.9706 278.013 90.1364 277.482 90.3636C276.952 90.5909 276.54 90.8987 276.246 91.2869C275.953 91.6657 275.806 92.1392 275.806 92.7074C275.806 93.5312 276.104 94.161 276.701 94.5966C277.307 95.0227 278.074 95.2358 279.002 95.2358Z" fill="black"/>
    <path d="M300.302 86.3864V99H294.251V77.1818H300.018V81.0312H300.273C300.756 79.7623 301.566 78.7585 302.702 78.0199C303.839 77.2718 305.217 76.8977 306.836 76.8977C308.351 76.8977 309.672 77.2292 310.799 77.892C311.926 78.5549 312.802 79.5019 313.427 80.733C314.052 81.9545 314.364 83.4129 314.364 85.108V99H308.313V86.1875C308.323 84.8523 307.982 83.8106 307.29 83.0625C306.599 82.3049 305.647 81.9261 304.435 81.9261C303.621 81.9261 302.901 82.1013 302.276 82.4517C301.661 82.8021 301.178 83.3134 300.827 83.9858C300.486 84.6487 300.311 85.4489 300.302 86.3864Z" fill="black"/>
    <path d="M71.625 31.25C65.3469 31.25 59.775 33.7281 56 37.9875C52.225 33.7281 46.6531 31.25 40.375 31.25C34.9069 31.2566 29.6647 33.4317 25.7982 37.2982C21.9317 41.1647 19.7566 46.4069 19.75 51.875C19.75 74.4812 52.8156 92.5438 54.2219 93.3031C54.7683 93.5974 55.3793 93.7515 56 93.7515C56.6207 93.7515 57.2317 93.5974 57.7781 93.3031C59.1844 92.5438 92.25 74.4812 92.25 51.875C92.2434 46.4069 90.0683 41.1647 86.2018 37.2982C82.3353 33.4317 77.0931 31.2566 71.625 31.25ZM69.9094 75.7375C65.5571 79.4307 60.9045 82.7547 56 85.675C51.0955 82.7547 46.4429 79.4307 42.0906 75.7375C35.3187 69.9281 27.25 61.0688 27.25 51.875C27.25 48.394 28.6328 45.0556 31.0942 42.5942C33.5556 40.1328 36.894 38.75 40.375 38.75C45.9375 38.75 50.5938 41.6875 52.5281 46.4188C52.8097 47.1085 53.2903 47.6987 53.9086 48.1142C54.527 48.5296 55.255 48.7515 56 48.7515C56.745 48.7515 57.473 48.5296 58.0914 48.1142C58.7097 47.6987 59.1903 47.1085 59.4719 46.4188C61.4062 41.6875 66.0625 38.75 71.625 38.75C75.106 38.75 78.4444 40.1328 80.9058 42.5942C83.3672 45.0556 84.75 48.394 84.75 51.875C84.75 61.0688 76.6812 69.9281 69.9094 75.7375Z" fill="black"/>
</svg>
